<svg width="185" height="58" viewBox="0 0 185 58" fill="none" xmlns="http://www.w3.org/2000/svg">
<circle cx="29.5" cy="29.5" r="28.5" fill="black" fill-opacity="0.7"/>
<path d="M39.48 43.16C38.12 43.16 36.7867 43.0133 35.48 42.72C34.2 42.4267 33.04 42.0533 32 41.6L32.2 34.6L35.08 34.76L35.76 38.96C36.1867 39.12 36.72 39.28 37.36 39.44C38 39.6 38.6667 39.68 39.36 39.68C40.24 39.68 41.0667 39.5467 41.84 39.28C42.64 38.9867 43.28 38.5467 43.76 37.96C44.2667 37.3733 44.52 36.6267 44.52 35.72C44.52 35 44.3733 34.3867 44.08 33.88C43.7867 33.3733 43.3333 32.8933 42.72 32.44C42.1067 31.9867 41.28 31.52 40.24 31.04C39.2 30.5333 38.1867 30.04 37.2 29.56C36.2133 29.08 35.32 28.5333 34.52 27.92C33.7467 27.3067 33.12 26.5733 32.64 25.72C32.1867 24.84 31.96 23.7733 31.96 22.52C31.96 21.0533 32.3467 19.7867 33.12 18.72C33.92 17.6267 34.9867 16.7867 36.32 16.2C37.68 15.6133 39.1467 15.32 40.72 15.32C41.9733 15.32 43.1867 15.44 44.36 15.68C45.5333 15.8933 46.6267 16.1733 47.64 16.52L48.2 23.44H45.4L43.56 19.2C43.1333 19.0667 42.6667 18.9733 42.16 18.92C41.6533 18.84 41.1467 18.8 40.64 18.8C39.7867 18.8 39.0133 18.9467 38.32 19.24C37.6533 19.5067 37.12 19.9067 36.72 20.44C36.3467 20.9467 36.16 21.5467 36.16 22.24C36.16 22.9333 36.3467 23.5333 36.72 24.04C37.0933 24.5467 37.5733 24.9867 38.16 25.36C38.7733 25.7333 39.44 26.08 40.16 26.4C40.88 26.6933 41.5733 27 42.24 27.32C43.84 28.0667 45.1067 28.84 46.04 29.64C47 30.4133 47.6933 31.2533 48.12 32.16C48.5467 33.0667 48.76 34.08 48.76 35.2C48.76 36.56 48.4933 37.7467 47.96 38.76C47.4533 39.7467 46.76 40.5733 45.88 41.24C45 41.88 44 42.36 42.88 42.68C41.76 43 40.6267 43.16 39.48 43.16Z" fill="#E5BD7D"/>
<path d="M52.6306 43L52.2706 40.08L54.7506 39.64V18.64L52.2706 18.4V15.36H61.0706L61.4306 18.36L58.8306 18.76V39.72L61.4706 40.04L61.4306 43H52.6306ZM65.5213 43L65.1213 40.16L67.6413 39.6V18.64L65.1613 18.4V15.36H73.5213C75.5213 15.36 77.2279 15.5867 78.6413 16.04C80.0813 16.4933 81.2413 17.1333 82.1213 17.96C83.0013 18.76 83.6413 19.6933 84.0413 20.76C84.4413 21.8267 84.6413 22.96 84.6413 24.16C84.6413 26.1333 84.1879 27.8 83.2812 29.16C82.4013 30.52 81.1346 31.5467 79.4813 32.24C77.8546 32.9333 75.9613 33.28 73.8013 33.28H71.7213V39.44L77.5613 40.28L77.4413 43H65.5213ZM71.7213 29.8H72.9213C75.0279 29.8 76.6146 29.5467 77.6813 29.04C78.7479 28.5333 79.4679 27.8533 79.8413 27C80.2413 26.12 80.4413 25.16 80.4413 24.12C80.4413 22.4133 79.8813 21.1067 78.7613 20.2C77.6413 19.2933 76.0813 18.84 74.0813 18.84H71.7213V29.8ZM95.3897 43L87.1097 18.6L85.6697 18.12V15.36H94.4297L94.7497 17.84L91.4697 18.6L97.9097 38.16L104.43 18.56L100.79 17.84V15.36H109.39V18.12L107.87 18.6L99.5497 43H95.3897ZM111.732 43L111.372 40.08L113.852 39.64V18.64L111.372 18.4V15.36H120.172L120.532 18.36L117.932 18.76V39.72L120.572 40.04L120.532 43H111.732ZM124.663 43L124.223 40.08L126.663 39.68V18.6L124.263 18.36V15.36H133.143L133.543 18.32L130.743 18.76V39.52H138.463L139.903 35.48H142.463L141.663 43H124.663ZM145.093 43L144.653 40.08L147.093 39.68V18.6L144.693 18.36V15.36H153.573L153.973 18.32L151.173 18.76V39.52H158.893L160.333 35.48H162.893L162.093 43H145.093ZM165.522 43L165.122 40.08L167.562 39.6V18.6L165.162 18.36V15.36H182.282L183.082 22.88H180.522L179.002 18.84H171.602V27.28H177.882V30.68H171.602V39.52H179.362L180.802 35.48H183.322L182.522 43H165.522Z" fill="white" fill-opacity="0.8"/>
<circle cx="14" cy="14" r="14" fill="#E5BD7D"/>
</svg>
